<svg width="46" height="46" viewBox="0 0 46 46" fill="none" xmlns="http://www.w3.org/2000/svg">
<rect x="3" y="3" width="40" height="40" rx="20" fill="#F4EBFF"/>
<g clip-path="url(#clip0_371_2309)">
<path d="M18.0786 22.3573C18.0268 22.0235 18 21.6816 18 21.3334C18 17.6515 21.0044 14.6667 24.7105 14.6667C28.4166 14.6667 31.421 17.6515 31.421 21.3334C31.421 22.1651 31.2677 22.9612 30.9876 23.6954C30.9295 23.8479 30.9004 23.9242 30.8872 23.9837C30.8741 24.0427 30.869 24.0842 30.8676 24.1446C30.8662 24.2055 30.8744 24.2727 30.891 24.407L31.2264 27.1321C31.2628 27.4271 31.2809 27.5746 31.2319 27.6819C31.1889 27.7758 31.1125 27.8505 31.0176 27.8913C30.9092 27.9379 30.7622 27.9163 30.4681 27.8732L27.8137 27.4841C27.6751 27.4638 27.6058 27.4536 27.5427 27.454C27.4803 27.4543 27.4371 27.459 27.3759 27.4718C27.3142 27.4848 27.2353 27.5143 27.0775 27.5735C26.3414 27.8492 25.5437 28 24.7105 28C24.362 28 24.0197 27.9736 23.6855 27.9228M19.3596 31.3334C21.8304 31.3334 23.8333 29.2813 23.8333 26.75C23.8333 24.2187 21.8304 22.1667 19.3596 22.1667C16.8889 22.1667 14.886 24.2187 14.886 26.75C14.886 27.2588 14.9669 27.7483 15.1163 28.2056C15.1794 28.3989 15.211 28.4956 15.2214 28.5616C15.2322 28.6306 15.2341 28.6693 15.2301 28.739C15.2262 28.8057 15.2095 28.8811 15.1761 29.0319L14.6667 31.3334L17.1623 30.9925C17.2985 30.9739 17.3667 30.9646 17.4261 30.965C17.4888 30.9654 17.522 30.9688 17.5834 30.9811C17.6417 30.9927 17.7285 31.0233 17.9019 31.0845C18.3588 31.2458 18.8492 31.3334 19.3596 31.3334Z" stroke="#7F56D9" stroke-width="1.66667" stroke-linecap="round" stroke-linejoin="round"/>
</g>
<rect x="3" y="3" width="40" height="40" rx="20" stroke="#F9F5FF" stroke-width="6"/>
<defs>
<clipPath id="clip0_371_2309">
<rect width="20" height="20" fill="white" transform="translate(13 13)"/>
</clipPath>
</defs>
</svg>
