<svg width="161" height="44" viewBox="0 0 161 44" fill="none" xmlns="http://www.w3.org/2000/svg">
<path d="M33.8807 22C30.3263 25.9713 25.1609 28.4706 19.4118 28.4706C13.6627 28.4706 8.4973 25.9713 4.94288 22C8.4973 18.0287 13.6627 15.5294 19.4118 15.5294C25.1609 15.5294 30.3263 18.0287 33.8807 22Z" fill="white"/>
<path fill-rule="evenodd" clip-rule="evenodd" d="M0 34.9412C0 24.2204 8.69098 15.5294 19.4118 15.5294C13.6627 15.5294 8.4973 18.0287 4.94288 22C8.4973 25.9713 13.6627 28.4706 19.4118 28.4706C25.1609 28.4706 30.3263 25.9713 33.8807 22C36.9545 25.4343 38.8235 29.9695 38.8235 34.9412V42.2745C38.8235 43.2275 38.051 44 37.098 44H1.72549C0.772528 44 0 43.2275 0 42.2745V34.9412ZM33.8807 22C33.8807 22 33.8807 22 33.8807 22V22Z" fill="#9A7AE0"/>
<path fill-rule="evenodd" clip-rule="evenodd" d="M12.1306 27.0589C9.3589 25.9366 6.90535 24.1927 4.94288 22C8.4973 18.0287 13.6627 15.5294 19.4118 15.5294C25.1609 15.5294 30.3263 18.0287 33.8807 22C33.8807 22 33.8807 22 33.8807 22C36.9545 18.5657 38.8235 14.0305 38.8235 9.05883V1.72549C38.8235 0.772532 38.051 3.24321e-06 37.098 3.24321e-06L1.72549 0C0.772533 -8.33103e-08 4.65843e-06 0.772529 4.57512e-06 1.72549L3.93402e-06 9.05882C2.64458e-06 17.2047 5.01755 24.1788 12.1306 27.0589Z" fill="#7F56D9"/>
<path d="M55.5781 30V14H58.4766V20.7734H65.8906V14H68.7969V30H65.8906V23.2031H58.4766V30H55.5781Z" fill="#7F56D9"/>
<path d="M77.0586 30.2344C75.8867 30.2344 74.8711 29.9766 74.0117 29.4609C73.1523 28.9453 72.4857 28.224 72.0117 27.2969C71.543 26.3698 71.3086 25.2865 71.3086 24.0469C71.3086 22.8073 71.543 21.7214 72.0117 20.7891C72.4857 19.8568 73.1523 19.1328 74.0117 18.6172C74.8711 18.1016 75.8867 17.8438 77.0586 17.8438C78.2305 17.8438 79.2461 18.1016 80.1055 18.6172C80.9648 19.1328 81.6289 19.8568 82.0977 20.7891C82.5716 21.7214 82.8086 22.8073 82.8086 24.0469C82.8086 25.2865 82.5716 26.3698 82.0977 27.2969C81.6289 28.224 80.9648 28.9453 80.1055 29.4609C79.2461 29.9766 78.2305 30.2344 77.0586 30.2344ZM77.0742 27.9688C77.7096 27.9688 78.2409 27.7943 78.668 27.4453C79.0951 27.0912 79.4128 26.6172 79.6211 26.0234C79.8346 25.4297 79.9414 24.7682 79.9414 24.0391C79.9414 23.3047 79.8346 22.6406 79.6211 22.0469C79.4128 21.4479 79.0951 20.9714 78.668 20.6172C78.2409 20.263 77.7096 20.0859 77.0742 20.0859C76.4232 20.0859 75.8815 20.263 75.4492 20.6172C75.0221 20.9714 74.7018 21.4479 74.4883 22.0469C74.2799 22.6406 74.1758 23.3047 74.1758 24.0391C74.1758 24.7682 74.2799 25.4297 74.4883 26.0234C74.7018 26.6172 75.0221 27.0912 75.4492 27.4453C75.8815 27.7943 76.4232 27.9688 77.0742 27.9688Z" fill="#7F56D9"/>
<path d="M92.8574 24.9531V18H95.6855V30H92.9434V27.8672H92.8184C92.5475 28.5391 92.1022 29.0885 91.4824 29.5156C90.8678 29.9427 90.11 30.1563 89.209 30.1563C88.4225 30.1563 87.7272 29.9818 87.123 29.6328C86.5241 29.2787 86.0553 28.7656 85.7168 28.0938C85.3783 27.4167 85.209 26.599 85.209 25.6406V18H88.0371V25.2031C88.0371 25.9635 88.2454 26.5677 88.6621 27.0156C89.0788 27.4635 89.6256 27.6875 90.3027 27.6875C90.7194 27.6875 91.123 27.5859 91.5137 27.3828C91.9043 27.1797 92.2246 26.8776 92.4746 26.4766C92.7298 26.0703 92.8574 25.5625 92.8574 24.9531Z" fill="#7F56D9"/>
<path d="M98.5938 30V18H101.336V20H101.461C101.68 19.3073 102.055 18.7734 102.586 18.3984C103.122 18.0182 103.734 17.8281 104.422 17.8281C104.578 17.8281 104.753 17.8359 104.945 17.8516C105.143 17.862 105.307 17.8802 105.438 17.9063V20.5078C105.318 20.4662 105.128 20.4297 104.867 20.3984C104.612 20.362 104.365 20.3438 104.125 20.3438C103.609 20.3438 103.146 20.4557 102.734 20.6797C102.328 20.8984 102.008 21.2031 101.773 21.5938C101.539 21.9844 101.422 22.4349 101.422 22.9453V30H98.5938Z" fill="#7F56D9"/>
<path d="M112.041 34.75C111.025 34.75 110.153 34.612 109.424 34.3359C108.695 34.0651 108.109 33.7005 107.666 33.2422C107.223 32.7839 106.916 32.2761 106.744 31.7188L109.291 31.1016C109.406 31.3359 109.572 31.5677 109.791 31.7969C110.01 32.0313 110.304 32.224 110.674 32.375C111.049 32.5313 111.52 32.6094 112.088 32.6094C112.89 32.6094 113.554 32.4141 114.08 32.0234C114.606 31.638 114.869 31.0026 114.869 30.1172V27.8438H114.729C114.583 28.1354 114.369 28.4349 114.088 28.7422C113.812 29.0495 113.445 29.3073 112.986 29.5156C112.533 29.724 111.963 29.8281 111.275 29.8281C110.354 29.8281 109.518 29.612 108.768 29.1797C108.023 28.7422 107.429 28.0912 106.986 27.2266C106.549 26.3568 106.33 25.2682 106.33 23.9609C106.33 22.6432 106.549 21.5313 106.986 20.625C107.429 19.7135 108.025 19.0234 108.775 18.5547C109.525 18.0807 110.361 17.8438 111.283 17.8438C111.986 17.8438 112.564 17.9636 113.018 18.2031C113.476 18.4375 113.84 18.7214 114.111 19.0547C114.382 19.3828 114.588 19.6927 114.729 19.9844H114.885V18H117.674V30.1953C117.674 31.2214 117.429 32.0703 116.939 32.7422C116.45 33.4141 115.781 33.9167 114.932 34.25C114.083 34.5833 113.119 34.75 112.041 34.75ZM112.064 27.6094C112.663 27.6094 113.174 27.4635 113.596 27.1719C114.018 26.8802 114.338 26.4609 114.557 25.9141C114.775 25.3672 114.885 24.7109 114.885 23.9453C114.885 23.1901 114.775 22.5287 114.557 21.9609C114.343 21.3932 114.025 20.9531 113.604 20.6406C113.187 20.3229 112.674 20.1641 112.064 20.1641C111.434 20.1641 110.908 20.3281 110.486 20.6563C110.064 20.9844 109.747 21.4349 109.533 22.0078C109.32 22.5755 109.213 23.2214 109.213 23.9453C109.213 24.6797 109.32 25.3229 109.533 25.875C109.752 26.4219 110.072 26.849 110.494 27.1563C110.921 27.4583 111.445 27.6094 112.064 27.6094Z" fill="#7F56D9"/>
<path d="M123.4 14V30H120.572V14H123.4Z" fill="#7F56D9"/>
<path d="M129.762 30.2422C129.001 30.2422 128.316 30.1068 127.707 29.8359C127.103 29.5599 126.624 29.1537 126.27 28.6172C125.921 28.0807 125.746 27.4193 125.746 26.6328C125.746 25.9557 125.871 25.3958 126.121 24.9531C126.371 24.5104 126.712 24.1563 127.145 23.8906C127.577 23.625 128.064 23.4245 128.605 23.2891C129.152 23.1484 129.717 23.0469 130.301 22.9844C131.004 22.9115 131.574 22.8464 132.012 22.7891C132.449 22.7266 132.767 22.6328 132.965 22.5078C133.168 22.3776 133.27 22.1771 133.27 21.9063V21.8594C133.27 21.2708 133.095 20.8151 132.746 20.4922C132.397 20.1693 131.895 20.0078 131.238 20.0078C130.546 20.0078 129.996 20.1589 129.59 20.4609C129.189 20.763 128.918 21.1198 128.777 21.5313L126.137 21.1563C126.345 20.4271 126.689 19.8177 127.168 19.3281C127.647 18.8333 128.233 18.4635 128.926 18.2188C129.618 17.9688 130.384 17.8438 131.223 17.8438C131.801 17.8438 132.376 17.9115 132.949 18.0469C133.522 18.1823 134.046 18.4063 134.52 18.7188C134.993 19.026 135.374 19.4453 135.66 19.9766C135.952 20.5078 136.098 21.1719 136.098 21.9688V30H133.379V28.3516H133.285C133.113 28.6849 132.871 28.9974 132.559 29.2891C132.251 29.5755 131.863 29.8073 131.395 29.9844C130.931 30.1563 130.387 30.2422 129.762 30.2422ZM130.496 28.1641C131.064 28.1641 131.556 28.0521 131.973 27.8281C132.389 27.599 132.71 27.2969 132.934 26.9219C133.163 26.5469 133.277 26.138 133.277 25.6953V24.2813C133.189 24.3542 133.038 24.4219 132.824 24.4844C132.616 24.5469 132.382 24.6016 132.121 24.6484C131.861 24.6953 131.603 24.737 131.348 24.7734C131.092 24.8099 130.871 24.8412 130.684 24.8672C130.262 24.9245 129.884 25.0182 129.551 25.1484C129.217 25.2787 128.954 25.4609 128.762 25.6953C128.569 25.9245 128.473 26.2214 128.473 26.5859C128.473 27.1068 128.663 27.5 129.043 27.7656C129.423 28.0313 129.908 28.1641 130.496 28.1641Z" fill="#7F56D9"/>
<path d="M148.426 21.1719L145.848 21.4531C145.775 21.1927 145.647 20.9479 145.465 20.7188C145.288 20.4896 145.048 20.3047 144.746 20.1641C144.444 20.0234 144.074 19.9531 143.637 19.9531C143.048 19.9531 142.553 20.0807 142.152 20.3359C141.757 20.5912 141.561 20.9219 141.566 21.3281C141.561 21.6771 141.689 21.9609 141.949 22.1797C142.215 22.3984 142.652 22.5781 143.262 22.7188L145.309 23.1563C146.444 23.401 147.288 23.7891 147.84 24.3203C148.397 24.8516 148.678 25.5469 148.684 26.4063C148.678 27.1615 148.457 27.8281 148.02 28.4063C147.587 28.9792 146.986 29.4271 146.215 29.75C145.444 30.0729 144.559 30.2344 143.559 30.2344C142.09 30.2344 140.908 29.9271 140.012 29.3125C139.116 28.6927 138.582 27.8307 138.41 26.7266L141.168 26.4609C141.293 27.0026 141.559 27.4115 141.965 27.6875C142.371 27.9635 142.9 28.1016 143.551 28.1016C144.223 28.1016 144.762 27.9635 145.168 27.6875C145.579 27.4115 145.785 27.0703 145.785 26.6641C145.785 26.3203 145.652 26.0365 145.387 25.8125C145.126 25.5885 144.72 25.4167 144.168 25.2969L142.121 24.8672C140.97 24.6276 140.118 24.224 139.566 23.6563C139.014 23.0833 138.741 22.3594 138.746 21.4844C138.741 20.7448 138.941 20.1042 139.348 19.5625C139.759 19.0156 140.329 18.5938 141.059 18.2969C141.793 17.9948 142.639 17.8438 143.598 17.8438C145.004 17.8438 146.111 18.1432 146.918 18.7422C147.73 19.3412 148.233 20.151 148.426 21.1719Z" fill="#7F56D9"/>
<path d="M160.5 21.1719L157.922 21.4531C157.849 21.1927 157.721 20.9479 157.539 20.7188C157.362 20.4896 157.122 20.3047 156.82 20.1641C156.518 20.0234 156.148 19.9531 155.711 19.9531C155.122 19.9531 154.628 20.0807 154.227 20.3359C153.831 20.5912 153.635 20.9219 153.641 21.3281C153.635 21.6771 153.763 21.9609 154.023 22.1797C154.289 22.3984 154.727 22.5781 155.336 22.7188L157.383 23.1563C158.518 23.401 159.362 23.7891 159.914 24.3203C160.471 24.8516 160.753 25.5469 160.758 26.4063C160.753 27.1615 160.531 27.8281 160.094 28.4063C159.661 28.9792 159.06 29.4271 158.289 29.75C157.518 30.0729 156.633 30.2344 155.633 30.2344C154.164 30.2344 152.982 29.9271 152.086 29.3125C151.19 28.6927 150.656 27.8307 150.484 26.7266L153.242 26.4609C153.367 27.0026 153.633 27.4115 154.039 27.6875C154.445 27.9635 154.974 28.1016 155.625 28.1016C156.297 28.1016 156.836 27.9635 157.242 27.6875C157.654 27.4115 157.859 27.0703 157.859 26.6641C157.859 26.3203 157.727 26.0365 157.461 25.8125C157.201 25.5885 156.794 25.4167 156.242 25.2969L154.195 24.8672C153.044 24.6276 152.193 24.224 151.641 23.6563C151.089 23.0833 150.815 22.3594 150.82 21.4844C150.815 20.7448 151.016 20.1042 151.422 19.5625C151.833 19.0156 152.404 18.5938 153.133 18.2969C153.867 17.9948 154.714 17.8438 155.672 17.8438C157.078 17.8438 158.185 18.1432 158.992 18.7422C159.805 19.3412 160.307 20.151 160.5 21.1719Z" fill="#7F56D9"/>
</svg>
